<mxfile host="app.diagrams.net" modified="2023-11-11T00:23:31.257Z" agent="Mozilla/5.0 (Windows NT 10.0; Win64; x64) AppleWebKit/537.36 (KHTML, like Gecko) Chrome/119.0.0.0 Safari/537.36" etag="ZZ_ihwULUYpfL5tGcJbJ" version="22.1.0" type="device">
  <diagram name="Page-1" id="2YBvvXClWsGukQMizWep">
    <mxGraphModel dx="2034" dy="1148" grid="1" gridSize="10" guides="1" tooltips="1" connect="1" arrows="1" fold="1" page="1" pageScale="1" pageWidth="850" pageHeight="1100" math="0" shadow="0">
      <root>
        <mxCell id="0" />
        <mxCell id="1" parent="0" />
        <mxCell id="GMJVo72rkrmpuEZns8Ow-1" value="&lt;font style=&quot;font-size: 20px;&quot;&gt;&lt;b&gt;0&lt;/b&gt;&lt;/font&gt;" style="ellipse;whiteSpace=wrap;html=1;aspect=fixed;" vertex="1" parent="1">
          <mxGeometry x="120" y="240" width="80" height="80" as="geometry" />
        </mxCell>
        <mxCell id="GMJVo72rkrmpuEZns8Ow-2" value="&lt;b&gt;&lt;font style=&quot;font-size: 20px;&quot;&gt;5&lt;/font&gt;&lt;/b&gt;" style="ellipse;whiteSpace=wrap;html=1;aspect=fixed;" vertex="1" parent="1">
          <mxGeometry x="280" y="400" width="80" height="80" as="geometry" />
        </mxCell>
        <mxCell id="GMJVo72rkrmpuEZns8Ow-3" value="&lt;font style=&quot;font-size: 20px;&quot;&gt;&lt;b&gt;2&lt;/b&gt;&lt;/font&gt;" style="ellipse;whiteSpace=wrap;html=1;aspect=fixed;" vertex="1" parent="1">
          <mxGeometry x="440" y="240" width="80" height="80" as="geometry" />
        </mxCell>
        <mxCell id="GMJVo72rkrmpuEZns8Ow-4" value="&lt;font style=&quot;font-size: 20px;&quot;&gt;&lt;b&gt;1&lt;/b&gt;&lt;/font&gt;" style="ellipse;whiteSpace=wrap;html=1;aspect=fixed;" vertex="1" parent="1">
          <mxGeometry x="280" y="80" width="80" height="80" as="geometry" />
        </mxCell>
        <mxCell id="GMJVo72rkrmpuEZns8Ow-5" value="&lt;b&gt;&lt;font style=&quot;font-size: 20px;&quot;&gt;4&lt;/font&gt;&lt;/b&gt;" style="ellipse;whiteSpace=wrap;html=1;aspect=fixed;" vertex="1" parent="1">
          <mxGeometry x="560" y="400" width="80" height="80" as="geometry" />
        </mxCell>
        <mxCell id="GMJVo72rkrmpuEZns8Ow-6" value="&lt;font style=&quot;font-size: 20px;&quot;&gt;&lt;b&gt;3&lt;/b&gt;&lt;/font&gt;" style="ellipse;whiteSpace=wrap;html=1;aspect=fixed;" vertex="1" parent="1">
          <mxGeometry x="680" y="240" width="80" height="80" as="geometry" />
        </mxCell>
        <mxCell id="GMJVo72rkrmpuEZns8Ow-7" value="" style="endArrow=none;html=1;rounded=0;entryX=0;entryY=1;entryDx=0;entryDy=0;exitX=1;exitY=0;exitDx=0;exitDy=0;" edge="1" parent="1" source="GMJVo72rkrmpuEZns8Ow-1" target="GMJVo72rkrmpuEZns8Ow-4">
          <mxGeometry width="50" height="50" relative="1" as="geometry">
            <mxPoint x="320" y="610" as="sourcePoint" />
            <mxPoint x="370" y="560" as="targetPoint" />
          </mxGeometry>
        </mxCell>
        <mxCell id="GMJVo72rkrmpuEZns8Ow-8" value="" style="endArrow=none;html=1;rounded=0;entryX=1;entryY=1;entryDx=0;entryDy=0;exitX=0;exitY=0;exitDx=0;exitDy=0;" edge="1" parent="1" source="GMJVo72rkrmpuEZns8Ow-2" target="GMJVo72rkrmpuEZns8Ow-1">
          <mxGeometry width="50" height="50" relative="1" as="geometry">
            <mxPoint x="290" y="330" as="sourcePoint" />
            <mxPoint x="302" y="198" as="targetPoint" />
          </mxGeometry>
        </mxCell>
        <mxCell id="GMJVo72rkrmpuEZns8Ow-9" value="" style="endArrow=none;html=1;rounded=0;entryX=1;entryY=1;entryDx=0;entryDy=0;exitX=0;exitY=0;exitDx=0;exitDy=0;" edge="1" parent="1" source="GMJVo72rkrmpuEZns8Ow-3" target="GMJVo72rkrmpuEZns8Ow-4">
          <mxGeometry width="50" height="50" relative="1" as="geometry">
            <mxPoint x="302" y="422" as="sourcePoint" />
            <mxPoint x="238" y="318" as="targetPoint" />
          </mxGeometry>
        </mxCell>
        <mxCell id="GMJVo72rkrmpuEZns8Ow-10" value="" style="endArrow=none;html=1;rounded=0;entryX=1;entryY=0;entryDx=0;entryDy=0;exitX=0;exitY=1;exitDx=0;exitDy=0;" edge="1" parent="1" source="GMJVo72rkrmpuEZns8Ow-3" target="GMJVo72rkrmpuEZns8Ow-2">
          <mxGeometry width="50" height="50" relative="1" as="geometry">
            <mxPoint x="415" y="261" as="sourcePoint" />
            <mxPoint x="358" y="198" as="targetPoint" />
          </mxGeometry>
        </mxCell>
        <mxCell id="GMJVo72rkrmpuEZns8Ow-11" value="" style="endArrow=none;html=1;rounded=0;entryX=1;entryY=0.5;entryDx=0;entryDy=0;exitX=0;exitY=0.5;exitDx=0;exitDy=0;" edge="1" parent="1" source="GMJVo72rkrmpuEZns8Ow-6" target="GMJVo72rkrmpuEZns8Ow-3">
          <mxGeometry width="50" height="50" relative="1" as="geometry">
            <mxPoint x="425" y="271" as="sourcePoint" />
            <mxPoint x="368" y="208" as="targetPoint" />
          </mxGeometry>
        </mxCell>
        <mxCell id="GMJVo72rkrmpuEZns8Ow-12" value="" style="endArrow=none;html=1;rounded=0;entryX=0;entryY=1;entryDx=0;entryDy=0;exitX=1;exitY=0;exitDx=0;exitDy=0;" edge="1" parent="1" source="GMJVo72rkrmpuEZns8Ow-5" target="GMJVo72rkrmpuEZns8Ow-6">
          <mxGeometry width="50" height="50" relative="1" as="geometry">
            <mxPoint x="610" y="290" as="sourcePoint" />
            <mxPoint x="490" y="290" as="targetPoint" />
          </mxGeometry>
        </mxCell>
        <mxCell id="GMJVo72rkrmpuEZns8Ow-13" value="" style="endArrow=none;html=1;rounded=0;exitX=0;exitY=0;exitDx=0;exitDy=0;" edge="1" parent="1" source="GMJVo72rkrmpuEZns8Ow-5" target="GMJVo72rkrmpuEZns8Ow-3">
          <mxGeometry width="50" height="50" relative="1" as="geometry">
            <mxPoint x="638" y="422" as="sourcePoint" />
            <mxPoint x="690" y="330" as="targetPoint" />
          </mxGeometry>
        </mxCell>
        <mxCell id="GMJVo72rkrmpuEZns8Ow-15" value="" style="whiteSpace=wrap;html=1;aspect=fixed;fillColor=none;strokeColor=#FF3333;strokeWidth=5;" vertex="1" parent="1">
          <mxGeometry x="430" y="180" width="340" height="340" as="geometry" />
        </mxCell>
        <mxCell id="GMJVo72rkrmpuEZns8Ow-16" value="" style="whiteSpace=wrap;html=1;aspect=fixed;fillColor=none;strokeColor=#0000FF;strokeWidth=5;" vertex="1" parent="1">
          <mxGeometry x="115" y="76" width="250" height="250" as="geometry" />
        </mxCell>
      </root>
    </mxGraphModel>
  </diagram>
</mxfile>
